<svg xmlns="http://www.w3.org/2000/svg" viewBox="0 0 238.96 94.81">
    <path
        d="M78.29 34.65c.34 1.08.68 2.17 1.01 3.25.12-4.41-.36-8.7-.87-12.97-.35-2.9-1.47-5.41-4-7.05-1.03-.67-2.17-1.17-3.27-1.74-.16.25-.32.49-.48.74 3.11 2.26 7.02 3.97 6.4 8.7-2.84-1.57-5.46-3.9-8.4-4.42-3.08-.55-6.46.65-10.08 1.13 1-.92 1.68-1.54 2.62-2.41-2.73.32-6.55 3.94-7.07 6.57-.52 2.7-1.91 5.15-1.15 8.2.81 3.23-1.02 6.59.31 10.1.61 1.6-.79 3.92-1.18 5.93-.15.79-.02 1.64 0 2.47.08 2.22.15 4.45.25 6.67.12 2.72.26 5.45.37 7.62 0 1.95.01 3.37-.01 4.78 0 .16-.16.42-.31.48-2 .85-.39 1.42.14 2.1.59.75 1.59 1.53 1.61 2.31.05 2.24 1.24 1.6 2.2.98.73-.47 1.19-1.37 1.77-2.07 5.67-.35 11.31-1.25 16.89-2.41.78-.16 1.64-1.58 1.83-2.54.78-3.9 1.41-7.83 1.74-11.78.03-.34 1.35-2.97-1.28-2.77v3.7c-2.76-3.02-2.37-6.55-2.07-9.96.53.19 1.26.46 1.99.72-.64-.81-1.28-1.63-1.93-2.44-.34.11-.68.21-1.02.32.85-2.04 1.57-4.17 2.6-6.12.98-1.85 2.8-3.4.57-5.63-.37-.37.16-1.63.28-2.47h.52zm-18.88-6.19c.24-.6-.07-1.49.26-1.97.49-.71 1.28-1.5 2.06-1.64 1.12-.21 2.67.65 3.45.14 1.67-1.09 2.51-.15 3.1.89 1.71 3.01 3.4 6.08 4.71 9.28.39.94-.51 2.4-.82 3.62.09.05.18.11.28.16-.6 1.02-1.01 2.24-1.83 3.04-1.78 1.75-3.15 3.99-6.5 3.49-1.87-.28-3.99 1.07-6.26 1.77.51-6.08-.88-12.54 1.55-18.78zm13.17 42.02c-2.93.51-6.14 1.07-9.27 1.62l.97-2.23c-.52.18-1.03.43-1.57.52-2.2.38-3.06-.38-3.19-2.8-.22-4.03-1.02-8.02-1.44-12.04-.06-.55.52-1.55 1.01-1.73 3.2-1.1 6.43-2.16 9.73-2.88.74-.16 2.51 1 2.58 1.68.42 3.91.5 7.87.58 11.81 0 .37-.87.74-1.32 1.13-.73.63-1.45 1.28-2.17 1.91l4.25-1.48 1.14 2.09c-1.01-.14-1.63-.22-2.63-.35.63 1.29 1.11 2.27 1.34 2.73zM113.68 54.68c-.37 3.07-.06 6.23-.06 8.76 1.97 0 3.57.2 5.1-.05 2.31-.38 4.56-1.2 6.88-1.6 3.07-.54 3.09-.44 5.3 2.14-6.78 1.89-13.51 3.87-20.29 5.64-6.83 1.78-13.72 3.36-20.87 5.1.54-.85 1-1.56 1.56-2.42-1.5-.48-3.19 2.7-4.65-.66 1.77-.29 3.34-.5 4.88-.81 2.87-.58 5.78-1.08 8.57-1.94.76-.24 1.16-1.65 1.9-2.79.34.7.58 1.21 1.12 2.36.97-1 1.87-1.91 2.77-2.83.07-.07.12-.21.19-.22 5.56-.51 3.5-4.49 3.53-7.6.02-1.98.28-3.98.58-5.95.9-5.88 1.94-11.73 2.8-17.62.55-3.8-.25-4.42-4.04-3.65-3.26.66-6.53 1.25-9.8 1.86-4.22.79-8.44 1.57-12.66 2.36-.1-.28-.2-.57-.31-.85 2.18-.75 4.37-1.51 6.95-2.4-1.01-.54-1.75-.93-2.48-1.32-.04-.28-.07-.56-.11-.84 3.39-.61 6.77-1.23 10.16-1.84l.21-.51c-1.17-.18-2.33-.36-4.2-.65 6.49-1.15 12.14-2.4 17.85-3.06 2.16-.25 4.12.18 6.43-.86 1.65-.74 4.97-2.17 6.57.44 5.03.23 9.71.44 14.38.65.05.21.11.42.16.63-1.19.39-2.36.85-3.57 1.18-4.41 1.2-9 1.6-13.25 3.56-2.51 1.16-5.33 1.67-7.97 2.58-.31.11-.47.89-.55 1.39-1.07 7.27-2.26 14.52-3.12 21.81zM177.02 33.9c-3.45-3.72-7.07-7.15-11.1-10.21-2.11-1.61-5.12-1.95-7.29-.45-1.99 1.38-4.1 2.6-5.92 4.17-1.7 1.47-3.7 3.07-4.49 5.04-1.93 4.86-3.45 9.92-4.72 15-.81 3.25-.87 6.69-1.27 10.04-.58 3.13 1.26 5.5 3.17 7.13 2.17 1.85 5.14 2.76 7.78 4.03.16.08.54-.24.78-.41 3.23-2.24 6.52-4.17 10.4-5.3 6.14-1.79 9.7-6.76 12.39-12.17 1.2-2.4 1.15-5.39 2.08-7.95 1.81-4.95 1.56-5.29-1.83-8.93zm-32.17 17.23c1.29 3.51 2.73 7.42 4.24 11.52-5.11 1.02-6.67-5.79-4.24-11.52zm26.52.77c-2.86 3.18-6.32 5.21-10.16 6.97-4.74 2.17-11.01-.28-12.68-5.12-1.25-3.64-.64-7.09.06-10.69.84-4.29 2.61-8.15 4.88-11.76 1-1.61 2.93-2.64 4.43-3.93.28.25.57.51.84.77v3.49c.91-2.04 1.46-4.55 2.14-4.58 1.85-.1 4.49.25 5.52 1.5 3.06 3.69 6.24 7.61 7.96 11.99 1.5 3.82.05 8.01-2.99 11.37z" />
</svg>