<?xml version="1.0" encoding="UTF-8"?><svg id="Layer_1" xmlns="http://www.w3.org/2000/svg" viewBox="0 0 21.29 40">
    <path
        d="M18.39,8.81c1.37-.05,2.22-.87,2.22-2.22,.02-1.51,.11-3,.16-4.6-.3-.09-.82-.21-1.28-.48-.46-.25-.82-.66-1.26-.98-.16-.11-.41-.21-.6-.16-2.24,.43-4.58,.18-6.78,1.1-3.21,1.35-5.15,3.57-4.94,7.28,.05,1.08-.07,2.17-.21,3.27-.02,.27-.43,.66-.73,.71-1.12,.18-2.29,.23-3.53,.34-.09,1.4-.11,2.75-.32,4.07-.16,1.05,.46,2.29-.62,3.18,.23,.23,.48,.69,.71,.69,1.05-.02,2.08-.16,3.27-.27,.07,.43,.14,.73,.14,1.03-.07,4.3-.07,8.58,.69,12.84,.18,1.17,1.1,2.86-1.01,3.5,2.31,2.54,8.15,1.44,10.81,.11-.39-.43-.76-.87-.92-1.05,.25-.87,.55-1.47,.55-2.04,.05-2.93,0-5.88,.02-8.81,0-1.4,.16-2.77,.09-4.14-.05-.87,.23-1.1,1.01-1.21,1.4-.18,2.77-.5,4.14-.76,.05-.57,.11-1.08,.11-1.6-.05-1.51-.09-3.02-.23-4.51-.05-.27-.76-.8-.85-.73-1.26,.76-2.38-.25-3.73,.07,.37-1.63,.69-3,1.01-4.37,.73-.09,1.4-.23,2.06-.25Zm-3.71,.96c-.39,1.49-.69,3-1.01,4.53-.11,.57,.87,1.26,1.6,1.12q2.29-.41,2.52,1.9,.23,2.15-1.85,1.72c-1.47-.3-2.68,.76-2.82,2.2-.18,2.38-.6,4.76-.73,7.17-.14,2.24-.02,4.53-.02,6.8v1.44c-1.72,.16-3.34,.34-5.04,.5-.11-1.69-.25-3.32-.37-4.94-.18-2.17-.37-4.35-.55-6.52-.18-1.81-.37-3.62-.55-5.43-.07-.82-.21-1.47-1.33-.96-.41,.21-.96,.16-1.44,.09-.23-.05-.55-.37-.57-.6-.14-1.21-.25-2.4-.23-3.62,0-.25,.53-.71,.85-.73,1.47-.09,2.79-.55,3.91-1.49,.27-.23,.53-.64,.53-.98,.02-1.85-.09-3.69-.07-5.54,.02-.48,.25-1.14,.62-1.4,1.6-1.14,3.14-2.52,5.43-1.6,.64,.27,1.53-.14,2.31-.23,.43-.05,.89-.11,1.33-.11,.53,.02,.92,.25,.64,.89-.25,.55,.02,.89,.3,1.37,.32,.62,.5,1.58,.25,2.2-.34,.82-.94,.34-1.35-.37-.43,.69-.82,1.24-1.67,1.37-.3,.05-.57,.76-.69,1.21Z" />
</svg>