<?xml version="1.0" encoding="UTF-8"?><svg id="Layer_1" xmlns="http://www.w3.org/2000/svg" viewBox="0 0 238.96 94.81">
    <path
        d="M206.17,65.67c.03,.28,.06,.57,.09,.85-2.05,.31-4.12,.54-6.13,.98-1.08,.24-2.06,.91-3.11,1.32-1.14,.44-2.29,1.03-3.47,1.13-5.48,.48-10.8,2.45-16.42,1.62-1.66-.25-3.38-.05-5.07-.19-1.01-.09-1.99-.44-3.57-.8,.98-1.05,1.67-1.77,2.32-2.51,.28-.33,.6-.71,.69-1.11,.79-3.53,1.55-7.06,2.3-10.59,.05-.25,.12-.65-.02-.77-2.86-2.57-1.22-5.48-.75-8.35,.21-1.23-.09-2.54-.1-3.82-.02-1.92,.02-3.85,.03-5.77,0-2.18-.09-4.37,.05-6.54,.04-.58,.8-1.1,1.19-1.66,.67-.98,1.69-1.83,.72-3.31-.17-.26,.8-1.81,1.39-1.92,1.42-.26,2.95,.15,4.4-.01,2.34-.25,4.64-.91,6.98-1.06,1.48-.09,2.99,.56,4.51,.66,1.11,.08,2.25-.15,3.38-.29,1.37-.16,2.73-.48,4.11-.53,.57-.02,1.16,.49,1.74,.76-.26,.55-.53,1.1-.94,1.97h6.06c-.29,1.61-1.37,2.24-4.9,2.87,.27-.57,.54-1.14,.87-1.84-2.48,.18-4.75,.34-7.02,.49,0,.3,.01,.61,.02,.91,1.27,0,2.55-.05,3.82,.02,.78,.04,1.54,.27,2.31,.41-1.94,.72-3.83,1.78-5.83,2.05-1.35,.18-3.37,2.29-4.55-.65-.07-.16-2.77-1.75-4.06,.3-.19,.3-1.24,.51-1.31,.39-1.64-2.69-3.62,.26-5.39-.27-.09-.03-.73,1.2-.83,1.88-.5,3.4-.95,6.8-1.33,10.22-.13,1.14-.17,2.35,.07,3.45,.11,.52,1.29,1.36,1.46,1.24,2.36-1.54,5.02-.36,7.42-.97,2.67-.68,5.28-1.68,7.27-2.33,1.4,.89,2.46,1.57,3.91,2.49-1.94,.68-3.78,1.43-5.69,1.95-3.74,1.02-7.52,1.93-11.29,2.85-2.36,.57-3.69,2.18-3.31,4.95,.49,3.65-.17,7.02-1.55,10.22,.66,0,1.39,.13,2.05-.03,1.04-.26,2.72,.55,2.84-1.62,.01-.24,1.82-.61,2.78-.54,2.25,.18,5.08,1.6,6.59,.7,2.82-1.67,6.25,.34,8.69-2.16,.32-.34,1.58,.24,3.01,.51-1.61,.75-2.55,1.18-3.49,1.62,.03,.14,.05,.27,.08,.41,2.33,.14,4.66,.29,6.99,.43Z" />
    <path
        d="M67.34,60.73c.07,3.17-1.05,4.13-4.29,3.63-.48,1.4-.96,2.82-1.6,4.7-1.99-3.91-1.03-7.59-1.1-11.16-.07-3.7-.02-7.41-.02-11.46-4.91,1.73-9.95,3.51-14.99,5.29-.77,.28-1.53,1.35-2.31,.01-1.19,.81-2.38,1.62-2.92,1.99,.76,6.67-.46,12.57-.55,18.61-1.21,.06-2.48,.13-3.74,.19-.02-1.33,.13-2.69-.11-3.97-.29-1.63-.88-3.21-1.38-4.8-.58-1.85-1.21-3.68-1.93-5.87,.73,.06,1.22,.11,1.35,.12,0-1.06-.13-2.13,.03-3.15,.37-2.31,1.08-4.58,1.31-6.9,.4-4.07,.86-8.02,2.25-11.98,1.27-3.6,1.18-7.67,1.75-11.53,.11-.74,.47-1.45,.72-2.16,.22,.05,.45,.09,.68,.14,.06,.83,.12,1.66,.19,2.49,.18-.11,.36-.23,.54-.34,.4,.57,1.16,1.15,1.14,1.71-.09,2.98-.35,5.95-.61,8.92-.24,2.74-.61,5.46-.81,8.21-.12,1.6-.02,3.21-.02,4.44,1.84-.48,3.99-1.05,6.15-1.6,3.38-.88,6.76-1.74,10.14-2.61,.48-.12,.97-.39,1.44-.37,2.21,.09,3.22-1.05,3.21-3.13-.01-3.59-.2-7.17-.13-10.76,.04-2.29,.41-4.55,2.83-5.5,.64,1.06,1.61,1.99,1.73,3.03,.26,2.07-.07,4.2,.06,6.29,.11,1.74,.79,3.47,.79,5.2,0,2.77-.94,5.68-.35,8.27,.49,2.13-1.56,4.54,.87,6.49,.48,.38-.27,2.21-.32,3.37-.06,1.4-.02,2.81,.02,4.22Z" />
    <path
        d="M153.22,27.88c-2.68,1.04-3.96,4.17-5.09,6.98-1.18,2.91-2.58,5.72-3.89,8.57-4.64-1.47-4.82-5.94-6.68-9.34,.25,.85,.49,1.69,.74,2.54-2.54-1.71-3.49-5.28-7.47-5.09,.17-1.18,.31-2.1,.45-3.03,.65,.2,.66,.46,.77,.53,.35,.19,.74,.31,1.12,.45-1.02-1.3-1.98-2.64-3.08-3.86-.27-.29-.98-.19-1.5-.26-.08-.01-.22,.01-.24,.06-1.19,2.32-2.36,4.65-3.53,6.97,.29-.02,.57-.03,.86-.04,.15,.88,.53,1.78,.44,2.63-.91,8.78-1.92,17.56-2.83,26.35-.17,1.61,.39,3.38-.09,4.85-.89,2.72,1.75,3.95,2.1,6.07,.03,.17,.54,.42,.77,.37,1.28-.28,2.45-3,1.98-4.62-.5,1.03-1,2.04-1.49,3.05l-1.2-.37c.44-2.34,.88-4.68,1.32-7.01,.4-2.1,.1-4.46,2.19-5.93-.9-3.93,1.41-7.57,.57-11.76-.76-3.78,.77-8.01,1.34-12.43,5.87,6.6,8.16,14.13,9.77,22.43,1.3-1.4,2.3-2.46,3.15-3.37,.14,.76,.3,1.64,.46,2.52,.28-.02,.56-.04,.84-.05,.33-1.12,1.05-2.29,.91-3.35-.46-3.5,.21-6.26,3.75-7.78,.28-.12,.53-.78,.46-1.12-.49-2.62,.07-3.31,3.14-3.66,0,1.69,.18,3.38-.03,5.04-.67,5.33-1.68,10.62-2.15,15.97-.21,2.45-1.01,5.24,1.34,7.85,.23-.88,.41-1.4,.49-1.94,.36-2.49,.67-4.99,1.02-7.48,.57-4.04,1.16-8.08,1.73-12.12,.44-3.16,.86-6.32,1.31-9.66-1.96-.53-1.52-2.56-1.26-4.2,.28-1.79,.26-4.15,2.91-3.9,.15-2.11,.3-4.1,.48-6.59-2.65,.95-2.99,4.6-5.88,5.72Zm-11.75,20.95c-.2,0-.41,0-.61,0-.3-1.16-.61-2.32-1.03-3.93,1.11,.26,1.89,.44,2.67,.62-.35,1.1-.69,2.2-1.03,3.3Z" />
    <path
        d="M112.99,36.95c-3.12-3.36-6.39-6.46-10.02-9.22-1.91-1.46-4.63-1.76-6.58-.4-1.8,1.24-3.71,2.35-5.35,3.76-1.54,1.33-3.34,2.77-4.05,4.55-1.74,4.39-3.12,8.96-4.26,13.55-.73,2.94-.79,6.04-1.15,9.07-.52,2.83,1.14,4.97,2.87,6.44,1.96,1.67,4.64,2.49,7.03,3.64,.14,.07,.48-.21,.7-.37,2.91-2.02,5.89-3.76,9.4-4.79,5.55-1.62,8.76-6.1,11.19-10.99,1.08-2.17,1.04-4.87,1.88-7.18,1.63-4.47,1.41-4.78-1.65-8.07Zm-29.05,15.56c1.16,3.17,2.46,6.7,3.83,10.41-4.62,.93-6.02-5.23-3.83-10.41Zm23.96,.69c-2.58,2.87-5.71,4.71-9.18,6.29-4.28,1.96-9.94-.25-11.45-4.63-1.13-3.29-.58-6.4,.05-9.66,.76-3.88,2.36-7.36,4.4-10.62,.9-1.45,2.64-2.38,4-3.55,.26,.23,.51,.46,.76,.69v3.15c.82-1.84,1.32-4.11,1.94-4.14,1.68-.09,4.06,.23,4.99,1.36,2.77,3.33,5.64,6.87,7.19,10.83,1.35,3.45,.04,7.23-2.7,10.27Z" />
</svg>