<?xml version="1.0" encoding="UTF-8"?><svg id="Layer_1" xmlns="http://www.w3.org/2000/svg" viewBox="0 0 40 40"><path d="M26.34,20.84c-.33,.59-.29,1.45-.71,1.95-1.9,2.35-4.49,2.92-7.3,2.19-2.28-.62-3.76-2.28-4.3-4.59-.83-3.59,1.78-5.94,5.02-6.42,3.57-.52,6.77,2.83,7.39,5.51,.07-.43,.12-.86,.17-1.26,.5,1.31,.45,1.28-.26,2.61Z"/><path d="M29.31,13.59h-1.12c.57,.93,1.09,1.66,1.5,2.45,1.4,2.71,.57,7.39-1.54,9.67-2,2.14-4.54,2.97-7.32,3.18-1.54,.12-3.14,.12-4.66-.14-.78-.14-1.45-.97-2.19-1.45-.52-.38-1.09-.71-1.93-1.21,.26,.59,.38,.9,.57,1.35-1.43-.38-1.9-1.52-2.35-2.52-.57-1.26-.83-2.69-1.19-4.04-.07-.19,.02-.48,.14-.64,.64-1,.78-2.02,.36-2.85,.21-.64,.26-1.12,.5-1.45,1.64-2.12,3.37-4.04,6.25-4.59,2.5-.48,4.94-.4,7.39,0,1.12,.17,2.19,.86,3.45,1.38-1.95,1.14-2.21,1.12-2.78-.07,.29,.05,.48,.12,.69,.14h.88c-.5-.33-.74-.59-.9-.57-1.16,.29-2.19,.05-3.35-.29-1.26-.33-2.73-.52-4.11,.26-1.78,1-3.87,1.47-5.11,3.35-1.54,2.35-2.14,4.78-1.07,7.46,.14,.36,.21,.74,.33,1.12,0,.05-.02,.07-.07,.24-.29-.33-.5-.59-.74-.93-.05,1.52,.14,1.69,1.47,1.83,.24,.02,.43,.29,.64,.45,2.19,1.83,4.82,2.61,7.53,2.35,3.02-.29,5.89-1.4,7.46-4.23,.74-1.33,1.71-2.69,1.59-4.4-.07-1.28-.38-2.4-1.45-3.21-.36-.26-.59-.67-1.09-1.28,.62,.14,.88,.19,1.33,.29-.4-.52-1.05-1.07-.95-1.28,.59-1.4-.95-2.45-.52-3.8,.14-.52-.26-1.4,0-1.66,.52-.52,1.33-.81,2.09-1.02,1.14-.33,2.9,.83,3.3,2.07,.64,1.93-1.02,4.11-3.04,4.04Z"/><path d="M37.63,32.53c-.19,.36-.31,.76-.55,1.05-.95,1.19-1.93,2.38-2.92,3.52-.19,.21-.52,.38-.78,.43-4.66,.57-9.32,1.19-14.02,.5-1.4-.21-2.88,.36-4.3,.38-1.14,0-2.31-.26-3.45-.43-.74-.1-1.47-.31-2.23-.33-2.31-.02-4.61-.48-5.89-2.42-1.09-1.64-1.64-3.68-2.14-5.63-.45-1.66-.62-3.42-.64-5.16-.02-2.09,.17-4.21,.36-6.32,.29-3.02,.64-6.04,1-9.06,.05-.38,.33-.76,.5-1.12,.24,.38,.67,.76,.69,1.19,.1,1.07,.05,2.16-.05,3.26-.19,2.31-.12,4.68-.74,6.89-.86,3.09-.43,6.16-.4,9.22,.02,.78,.52,1.57,.81,2.35,.14,.43,.43,.86,.45,1.31,.07,1.31,.86,2.23,1.52,3.23,.12,.19,.33,.4,.52,.43,1.83,.24,3.64,.4,5.47,.62,.62,.07,1.21,.24,1.83,.24,.97-.02,1.93-.17,2.88-.26,.24-.02,.52-.21,.69-.14,1.93,1.16,3.83-.26,5.73-.07,2.04,.19,4.09,.4,6.16,.45,1.09,.05,2.35,.05,3.28-.43,1.59-.81,3.45-1.35,4.49-3.04,.29-.45,.97-.64,1.45-.95,.1,.12,.21,.21,.31,.31Z"/><path d="M38.75,27.47c-.55,1.09-.57,2.42-.83,3.78-.38,.02-.69,.05-1.12,.07,0-.57-.19-1.19,.02-1.62,.78-1.54-.05-3.09,.21-4.61,.14-.74,.5-1.43,.57-2.16,.12-1.21,.17-2.42,.12-3.61-.05-1.09-.45-2.19-.31-3.23,.29-2.14-.19-4.11-.86-6.08-.48-1.35-.95-2.71-1.52-4.02-.17-.4-.55-.81-.95-1-2.26-1-4.52-1.78-7.11-1.66-2.64,.14-5.32-.21-7.99-.33-2.78-.1-5.49,.26-8.18,1.12-1.78,.55-3.66,.9-5.04,2.33-.36,.4-.71,.83-1.14,1.19-.21,.19-.55,.24-.83,.36-.05-.31-.24-.69-.12-.93,.62-1.19,1.54-2.02,2.85-2.42,.36-.12,.59-.48,.93-.69,.5-.33,1-.81,1.57-.95,3.45-.78,6.92-1.4,10.48-1.19,1.26,.1,2.52-.1,3.78-.17,.12,0,.26-.07,.36-.02,2.23,1.21,4.71,.31,7.01,.83,1.47,.33,2.92,.83,4.35,1.28,.67,.21,.9,.64,1,1.38,.1,.64,.64,1.24,1,1.83,1.33,2.26,1.81,4.73,1.88,7.32,.07,2.69,.33,5.35,.33,8.03-.02,1.73,.4,3.47-.48,5.18Z"/><path d="M32.26,7.48c-1.35-1.5-3.04-1.21-4.54-1.28-1.4-.07-2.83,.24-4.23,.26-.9,.02-1.83-.21-2.73-.21-2.19-.02-4.35-.07-6.54,.05-1.54,.1-3.14,.26-4.61,.71-.62,.19-.97,1.24-1.43,1.93-.31,.48-.71,.95-.86,1.47-.31,1.07-.59,2.19-.64,3.28-.14,2.61-.14,5.23-.17,7.84-.02,1.76-.19,3.54,0,5.3,.14,1.09,.81,2.12,1.26,3.16,.1,.26,.26,.48,.36,.74,.81,2.16,1.35,2.5,3.64,2.59,2.23,.1,4.44,.24,6.68,.4,.29,.02,.55,.36,.83,.55-.31,.17-.62,.45-.95,.45-.59,.02-1.21-.14-1.83-.19-.81-.02-1.62,.05-2.42,0-1.64-.12-3.3-.17-4.9-.5-1.02-.21-2.09-.69-2.38-2.04-.17-.71-.78-1.31-1.05-2-.24-.59-.43-1.28-.43-1.93-.02-1.81,.02-3.61,.07-5.4,.1-2.97,.19-5.92,.26-8.87,.02-1.14-.45-2.52,.02-3.4,.81-1.47,1.24-3.11,3.23-4.04,2.57-1.19,5.11-1.16,7.7-1.26,3.8-.14,7.61-.1,11.41-.1,.81,0,1.62,.19,2.42,.33,1.05,.19,1.69,.76,1.81,2.14Z"/><path d="M35.68,15.68c-.17,.5-.43,.9-.4,1.33,.12,3.95-.45,7.82-.95,11.72-.19,1.54-.48,2.95-1.64,3.73-1.38,.93-3.04,1.54-4.66,1.97-1.59,.4-3.28,.52-4.92,.5-1.02,0-2.04-.5-3.04-.76v-.38c.67,0,1.35,.02,2.02,0,.9,0,1.83,.05,2.73-.05,1.54-.17,3.09-.43,4.63-.64,2.12-.29,3.95-2.52,4.14-4.94,.14-1.83,.45-3.64,.59-5.49,.1-1,.02-2.02,.07-3.02,.05-2.19,.14-4.37,.21-6.56,.02-.52,.24-1.09-.55-1.33-.14-.05-.21-.55-.19-.83,.02-1.05,.19-2.09-.74-2.95-.17-.14-.05-.62-.1-1.14,2.54,2.78,2.73,5.87,2.78,8.84Z"/></svg>