<?xml version="1.0" encoding="UTF-8"?><svg id="Layer_1" xmlns="http://www.w3.org/2000/svg" viewBox="0 0 238.96 94.81"><path d="M95.96,65.18c.03,.27,.06,.55,.08,.83-1.99,.31-4.01,.52-5.97,.96-1.05,.23-2,.89-3.02,1.28-1.11,.42-2.23,1-3.38,1.1-5.33,.47-10.51,2.39-15.98,1.58-1.61-.24-3.29-.05-4.93-.18-.98-.08-1.94-.42-3.48-.78,.95-1.02,1.62-1.72,2.26-2.44,.27-.32,.58-.69,.67-1.08,.77-3.43,1.51-6.87,2.24-10.3,.05-.24,.11-.63-.02-.75-2.78-2.5-1.19-5.33-.73-8.12,.2-1.2-.09-2.47-.1-3.72-.02-1.87,.02-3.75,.03-5.62,0-2.12-.09-4.25,.05-6.37,.04-.56,.78-1.07,1.16-1.62,.65-.96,1.65-1.78,.7-3.22-.17-.25,.78-1.76,1.36-1.87,1.38-.25,2.87,.14,4.28-.01,2.28-.24,4.51-.89,6.79-1.03,1.44-.09,2.91,.54,4.39,.65,1.08,.08,2.19-.14,3.29-.28,1.34-.16,2.66-.47,4-.52,.55-.02,1.13,.48,1.69,.73-.25,.53-.51,1.07-.92,1.91h5.89c-.28,1.56-1.34,2.18-4.77,2.79,.26-.56,.53-1.11,.85-1.79-2.42,.17-4.63,.33-6.84,.48,0,.29,.01,.6,.02,.89,1.24,0,2.48-.05,3.72,.02,.76,.04,1.5,.26,2.25,.4-1.89,.7-3.73,1.73-5.68,2-1.31,.18-3.28,2.23-4.42-.64-.07-.16-2.7-1.7-3.95,.29-.19,.29-1.21,.49-1.27,.38-1.6-2.62-3.52,.25-5.25-.26-.09-.03-.71,1.16-.81,1.83-.49,3.31-.92,6.62-1.29,9.94-.12,1.11-.17,2.28,.07,3.36,.11,.51,1.26,1.32,1.42,1.21,2.29-1.5,4.89-.35,7.22-.94,2.6-.66,5.13-1.64,7.07-2.27,1.36,.87,2.4,1.53,3.8,2.42-1.89,.66-3.68,1.39-5.54,1.9-3.64,.99-7.32,1.88-10.99,2.77-2.3,.56-3.59,2.12-3.22,4.81,.48,3.56-.17,6.84-1.51,9.95,.65,0,1.36,.12,2-.03,1.01-.25,2.64,.53,2.76-1.58,.01-.24,1.77-.6,2.7-.52,2.19,.18,4.94,1.56,6.41,.68,2.74-1.62,6.09,.33,8.46-2.11,.32-.33,1.54,.23,2.93,.49-1.57,.73-2.48,1.15-3.39,1.57,.03,.13,.05,.26,.08,.4,2.27,.14,4.53,.28,6.8,.42Z"/><path d="M133.3,63.79c-.86-1.73-1.58-3.19-2.35-4.76-2.27,1.29-2.85-1.09-4.51-2.41,1.27,.16,2.04,.26,2.83,.36,.06-.22,.12-.43,.19-.65-3.47-1.08-6.95-2.16-10.87-3.38,1.02-.67,1.84-1.09,2.5-1.67,1.62-1.42,3.46-2.73,4.66-4.46,1.02-1.46,1.31-3.46,1.88-5.23,.56-1.75,2.03-4.3,1.38-5.11-1.39-1.73-1.25-3.68-2.02-5.42-.08-.18-.45-.22-.63-.37-1.4-1.13-2.67-2.51-4.22-3.37-2.09-1.14-4.4-2.61-6.61-2.61-2.63,0-5.1,1.56-6.98,3.81-3.01,3.62-4.66,7.74-3.86,12.31,.29,1.64,.04,2.92-.22,4.37-.26,1.47-.18,3.14-.87,4.37-2.23,3.95-.54,8.17-1.11,12.22-.36,2.62-.07,5.34-.07,8.01,.34,.09,.68,.18,1.02,.27,.9-.9,2.33-1.67,2.59-2.73,.89-3.65,1.38-7.41,2.12-11.78,1.86,.61,3.96,1.11,5.93,1.95,4.05,1.73,7.91,3.79,10.54,7.56,.3,.42,1.04,.54,1.57,.81-.38-.8-.77-1.6-1.13-2.36,3.64-.72,4.96,.47,3.89,3.68,.7-.67,1.4-1.35,2.1-2.02-.1-.09-.2-.19-.29-.28,.81-.35,1.62-.7,2.55-1.11Zm-17.67-36.07q2.54-.47,3.25,2.65c-1.9,.38-3.67,.73-5.45,1.1-.29-1.05,1.1-3.54,2.2-3.75Zm-6.82,23.8c.21-1.72,.42-3.42,.62-5.1,.62-5.05,1.22-9.94,1.81-14.84l-.05-.02h0v-.02h0s0,0,0-.01h0s0-.01,0-.02,0-.01,0-.01c0,0,0,0,0-.01-.61,.32-1.22,.64-1.82,.97,.17-.72,.13-1.61,.54-2.13,.83-1.03,1.91-1.85,3.37-2.47-.7,1.21-1.39,2.42-2.09,3.63h.02s0,.05-.01,.08h0c.13,.05,.27,.1,.41,.14l.42,.14h0c.29,.1,.6,.2,.91,.3,.31,.1,.64,.21,.97,.32,.34,.11,.68,.23,1.06,.35,0,0,0,0,0,.02,0,.03,.02,.08,.03,.16,0,.03,.02,.08,.03,.14,.01,.05,.02,.1,.03,.16,.04,.19,.08,.45,.14,.76,1.43-2.08,2.87-2.29,4.57-.49,.07-.8,.12-1.28,.19-2.09,1.08,.37,2.05,.71,3.02,1.05-.07,.25-.14,.49-.21,.73-.72,.16-1.44,.33-2.48,.56,.56,.6,.94,1.02,1.34,1.41,1.03,1.03,1.97,1.61,.64,3.57-1.15,1.69-.8,4.4-1.1,6.57-1.72,1.48-3.29,3.45-5.32,4.43-2.21,1.07-4.87,1.22-7.08,1.72Z"/><path d="M220.62,60.37c.07,3.08-1.02,4.02-4.17,3.53-.47,1.36-.93,2.74-1.55,4.57-1.94-3.81-1-7.39-1.07-10.86-.07-3.6-.02-7.21-.02-11.16-4.78,1.69-9.68,3.42-14.59,5.15-.75,.27-1.49,1.31-2.25,.01-1.16,.79-2.32,1.58-2.84,1.94,.73,6.49-.45,12.23-.54,18.11-1.17,.06-2.41,.12-3.64,.19-.02-1.29,.12-2.61-.1-3.87-.28-1.59-.85-3.13-1.34-4.67-.56-1.8-1.17-3.58-1.88-5.71,.71,.06,1.19,.1,1.31,.11,0-1.03-.13-2.08,.03-3.06,.36-2.25,1.05-4.46,1.27-6.72,.39-3.96,.83-7.8,2.19-11.66,1.24-3.5,1.15-7.47,1.7-11.22,.1-.72,.46-1.41,.7-2.11,.22,.05,.44,.09,.66,.13,.06,.81,.12,1.62,.18,2.43,.18-.11,.35-.22,.52-.33,.39,.55,1.13,1.12,1.11,1.67-.09,2.9-.34,5.79-.6,8.68-.23,2.67-.59,5.31-.79,7.98-.11,1.55-.02,3.12-.02,4.32,1.79-.47,3.89-1.02,5.99-1.56,3.29-.85,6.58-1.69,9.86-2.54,.47-.12,.94-.38,1.4-.36,2.15,.08,3.13-1.02,3.13-3.04-.01-3.49-.19-6.98-.13-10.47,.04-2.23,.4-4.43,2.75-5.36,.62,1.03,1.56,1.94,1.68,2.94,.25,2.01-.07,4.08,.06,6.12,.11,1.7,.77,3.37,.77,5.06,0,2.7-.92,5.53-.34,8.05,.48,2.08-1.52,4.42,.85,6.31,.47,.37-.26,2.15-.32,3.28-.06,1.36-.02,2.73,.02,4.1Z"/><path d="M47.29,28.41c-2.61,1.01-3.85,4.06-4.95,6.79-1.15,2.83-2.51,5.57-3.78,8.34-4.52-1.43-4.69-5.78-6.5-9.09,.24,.82,.48,1.65,.72,2.47-2.47-1.67-3.4-5.13-7.27-4.96,.17-1.14,.3-2.04,.43-2.94,.64,.2,.64,.45,.75,.51,.34,.19,.72,.3,1.09,.44-.99-1.26-1.93-2.57-3-3.75-.26-.28-.96-.19-1.46-.25-.08-.01-.21,.01-.24,.06-1.15,2.26-2.29,4.52-3.44,6.78,.28-.02,.55-.03,.83-.04,.15,.85,.51,1.73,.42,2.56-.88,8.55-1.87,17.09-2.76,25.64-.17,1.56,.38,3.29-.08,4.72-.86,2.65,1.7,3.84,2.04,5.91,.03,.17,.52,.41,.75,.36,1.24-.27,2.38-2.92,1.93-4.5-.49,1-.97,1.98-1.45,2.97l-1.16-.36c.43-2.28,.86-4.55,1.29-6.83,.39-2.04,.1-4.34,2.13-5.77-.88-3.82,1.38-7.36,.56-11.45-.73-3.67,.75-7.79,1.3-12.1,5.71,6.43,7.94,13.75,9.51,21.83,1.27-1.36,2.24-2.4,3.06-3.28,.13,.74,.29,1.59,.45,2.45,.27-.02,.54-.04,.82-.05,.32-1.09,1.02-2.23,.89-3.26-.45-3.41,.21-6.1,3.65-7.57,.27-.11,.51-.76,.45-1.09-.48-2.55,.07-3.22,3.06-3.56,0,1.64,.17,3.29-.03,4.9-.65,5.19-1.64,10.34-2.09,15.54-.21,2.38-.98,5.1,1.3,7.64,.22-.86,.4-1.37,.48-1.88,.35-2.43,.65-4.85,.99-7.28,.55-3.93,1.13-7.86,1.68-11.79,.43-3.07,.83-6.15,1.27-9.4-1.9-.52-1.47-2.49-1.23-4.08,.27-1.74,.25-4.04,2.84-3.79,.15-2.05,.29-3.99,.47-6.42-2.58,.93-2.91,4.48-5.72,5.57Zm-11.44,20.38c-.2,0-.4,0-.6,0-.29-1.13-.59-2.26-1-3.82,1.08,.25,1.84,.43,2.6,.61-.34,1.07-.67,2.14-1,3.21Z"/><g><path d="M178.11,60.63c-2.26,.91-4.47,1.92-6.68,2.94-.57,.26-1.09,.68-1.62,1.02-.38-.72-.99-1.41-1.11-2.17-.19-1.24-.05-2.52-.05-3.85-1.26,1.13-2.42,2.24-3.67,3.24-1.29,1.04-2.68,1.98-3.97,2.93-3.14,.53-5.45-1.14-6.88-3.94-1.42-2.79-2.56-5.72-3.82-8.6,.17-.1,.33-.2,.49-.29,1.13,1.5,2.25,2.99,3.38,4.49,.08-.91-.17-1.7-.57-2.4-1.39-2.38-3.39-4.54-2.54-7.67,.68-2.51,1.31-5.04,1.99-7.55,.23-.84,.31-2.05,.88-2.41,1.6-.98,3.43-1.6,5.17-2.37,.99-.45,2.01-.86,2.94-1.42,.12-.08-.42-.99-.31-1.42,.07-.27,.79-.51,1.22-.53,1.93-.06,3.87-.03,6.4-.03-1.34-1-2.09-1.57-2.72-2.04,.87-.65,1.63-1.22,2.74-2.04-3.45-.63-6.2-1.13-8.97-1.64,.07-.24,.13-.47,.19-.71-.98,.7-2.06,1.28-2.9,2.11-2.28,2.26-4.17,5-6.72,6.85-4.24,3.06-4.56,8.18-7.09,12.1-.74,1.14-.32,2.97-.74,4.39-1.68,5.73-1.04,11.18,2.78,15.73,2.12,2.52,4.59,5.15,8.66,4.89,2.85-.18,5.73,.29,8.6,.38,1,.03,2.2,.04,3-.45,4.49-2.73,8.87-5.6,13.67-8.67-.93-.48-1.46-.98-1.74-.87Zm-28.7,.98c-1.49-4.02-3.77-7.92-2.88-12.51,.4-2.05,.71-4.13,1.07-6.2,.22,.02,.43,.04,.66,.06-.07,1.35-.13,2.7-.2,4.05,.46,.6,1.21,1.15,1.32,1.8,.32,1.87,.38,3.78,.14,6.1-.44-.63-.88-1.26-1.32-1.89,.8,2.02,1.42,4.14,2.45,6.04,.87,1.59,2.21,2.93,3.57,4.67-2.72,.67-4.22-.54-4.8-2.12Zm12.86,6.42c-.11-.31-.23-.63-.34-.94,2.17-.82,4.34-1.65,6.51-2.47,.17,.52,.35,1.03,.52,1.55-2.23,.62-4.47,1.24-6.7,1.86Z"/><path d="M161.53,62.7c-1.49,.9-4.65-1.5-6.79-6.04,2.67,2.37,4.77,4.25,6.79,6.04Z"/></g></svg>