<?xml version="1.0" encoding="UTF-8"?><svg id="Layer_1" xmlns="http://www.w3.org/2000/svg" viewBox="0 0 238.96 94.81"><path d="M133.59,56.81c-.25-.04-.49-.09-.74-.13-.61,1.78-1.3,3.54-1.8,5.35-.99,3.55-2.15,6.86-6.29,7.99-.68,.19-1.11,1.25-1.69,1.87-.02,.02-.45-.33-.69-.51,0-.17,0-.34,.01-.51,.38-.33,.76-.66,1.46-1.28-3-.94-5.8-1.02-8.49-.06-.97,.35-2.91-1.29-2.97,1.22l-.18,.15c-2-.68-4.01-1.35-6.01-2.04-.63-.22-1.25-.49-1.88-.74,.48-.67,.96-1.35,1.4-1.96-1.28-2.39-3.28-1.81-5.14-1.7-.51-1.57,0-3.59-2.25-4.41-.44-.16-.53-1.63-.55-2.5-.02-.84,.26-1.69,.36-2.24,2.03-.4,4.03-.79,6.02-1.18,.06,.14,.12,.28,.18,.43-1.02,.5-2.04,1.01-2.67,1.31,2.44,1.73,4.66,3.3,6.88,4.87-.79,.38-1.58,.76-2.23,1.07-1.06-.86-2.05-1.66-3.05-2.46,.16,3.87,4.45,6.18,6.65,5.09,2.64,1,4.72,1.86,6.85,2.57,1.69,.56,2.23-.3,1.97-1.89,1.79,.41,4.86-1.16,5.75-2.95,.41,.32,.82,.64,1.23,.96,3.12-3.45,3.59-7.5,1.15-9.42-.23,.54-.46,1.07-.69,1.61-.31-.59-.73-1.15-.9-1.79-.09-.32,.37-.77,.38-1.16,.08-3.37-3.15-4.11-4.88-6.04-.83-.94-1.81-1.76-2.74-2.61-.28-.25-.63-.6-.95-.6-2.6-.04-5.2-.08-7.79,0-4.22,.12-7.52-2.27-8.33-6.32-.4-2.01-.51-4.07-.74-6.12,.32-.06,.65-.11,.98-.16,.1,.32,.2,.64,.3,.96,.16-.04,.32-.07,.47-.11-.14-.61-.29-1.21-.45-1.89,.71-.79,1.57-1.72,2.39-2.69,2.73-3.23,6.65-3.29,10.35-3.79,4.23-.56,7.31,1.8,10.15,4.51,.27,.25,.34,.79,.35,1.2,.04,1.58,.02,3.16,.02,4.9-2.26-1.24-4.9-2.72-7.57-4.15-6.15-3.3-8.8-.86-10.1,4.91-.46,2.01,.88,3.53,2.81,4.05,4.2,1.14,8.47,2.04,12.68,3.17,.87,.23,1.6,1.01,2.62,1.68,.58,.26,1.76,.43,2.33,1.11,1.77,2.1,3.28,4.43,4.96,6.62,.98,1.28,1.68,2.47,.66,4.11-.21,.35,.26,1.12,.42,1.7Z"/><path d="M35.9,27.88c-2.68,1.04-3.96,4.17-5.09,6.98-1.18,2.91-2.58,5.72-3.89,8.57-4.64-1.47-4.82-5.94-6.68-9.34,.25,.85,.49,1.69,.74,2.54-2.54-1.71-3.49-5.28-7.47-5.09,.17-1.18,.31-2.1,.45-3.03,.65,.2,.66,.46,.77,.53,.35,.19,.74,.31,1.12,.45-1.02-1.3-1.98-2.64-3.08-3.86-.27-.29-.98-.19-1.5-.26-.08-.01-.22,.01-.24,.06-1.19,2.32-2.36,4.65-3.53,6.97,.29-.02,.57-.03,.86-.04,.15,.88,.53,1.78,.44,2.63-.91,8.78-1.92,17.56-2.83,26.35-.17,1.61,.39,3.38-.09,4.85-.89,2.72,1.75,3.95,2.1,6.07,.03,.17,.54,.42,.77,.37,1.28-.28,2.45-3,1.98-4.62-.5,1.03-1,2.04-1.49,3.05l-1.2-.37c.44-2.34,.88-4.68,1.32-7.01,.4-2.1,.1-4.46,2.19-5.93-.9-3.93,1.41-7.57,.57-11.76-.76-3.78,.77-8.01,1.34-12.43,5.87,6.6,8.16,14.13,9.77,22.43,1.3-1.4,2.3-2.46,3.15-3.37,.14,.76,.3,1.64,.46,2.52,.28-.02,.56-.04,.84-.05,.33-1.12,1.05-2.29,.91-3.35-.46-3.5,.21-6.26,3.75-7.78,.28-.12,.53-.78,.46-1.12-.49-2.62,.07-3.31,3.14-3.66,0,1.69,.18,3.38-.03,5.04-.67,5.33-1.68,10.62-2.15,15.97-.21,2.45-1.01,5.24,1.34,7.85,.23-.88,.41-1.4,.49-1.94,.36-2.49,.67-4.99,1.02-7.48,.57-4.04,1.16-8.08,1.73-12.12,.44-3.16,.86-6.32,1.31-9.66-1.96-.53-1.52-2.56-1.26-4.2,.28-1.79,.26-4.15,2.91-3.9,.15-2.11,.3-4.1,.48-6.59-2.65,.95-2.99,4.6-5.88,5.72Zm-11.75,20.95c-.2,0-.41,0-.61,0-.3-1.16-.61-2.32-1.03-3.93,1.11,.26,1.89,.44,2.67,.62-.35,1.1-.69,2.2-1.03,3.3Z"/><path d="M89.12,25.77c-.33,.01-.66,.02-.99,.03-.06,.66-.13,1.32-.19,1.98-.2-.22-.41-.43-.61-.65-1.14,.86-2.29,1.72-3.44,2.57,0-.01,0-.02,0-.03-.18-.2-.35-.4-.53-.62-.12-.14-.25-.29-.39-.45-.21-.24-.43-.49-.69-.79,0,5.07-.26,9.87,.07,14.62,.36,5.07-.03,9.66-4.28,13.19-.85,.7-1.32,1.85-1.96,2.79,.18,.13,.35,.26,.53,.39,1.08-1.17,2.16-2.34,3.75-4.05-.96,5.08-2.9,7.36-5.82,6.23,.37-.77,.73-1.54,1.11-2.31-.93,.07-1.77,.39-1.89,.89-.4,1.63-1.28,1.25-2.36,.86-2.16-.79-4.07-1.77-5.37-3.88-.69-1.12-2.05-1.84-3.1-2.74-.13,.16-.27,.32-.4,.48,1.05,1.13,2.1,2.27,3.14,3.4-.19,.21-.37,.41-.55,.61-1.04-.78-2.56-1.34-3.03-2.38-1.13-2.48-1.91-5.15-2.57-7.81-1.28-5.14-1.35-10.39-.97-15.63,.05-.72,.89-1.39,1.36-2.08,.1,.1,.21,.2,.31,.29-.13,.74-.25,1.49-.38,2.23,1.01-.99,1.45-2.11,1.89-3.24,.17-.43,.32-.87,.47-1.31-.61,.05-1.36-.11-1.79,.2-.79,.56-1.36,1.41-2.07,2.09-.14,.14-.48,.07-.71,.1-.27-.65-.52-1.24-.81-1.92-.6,1.53-1.13,2.79-1.58,4.08-.49,1.4-.91,2.84-1.38,4.25-1.22,3.72-.91,8.68,.73,11.83,.14,.27,.24,.57,.28,.86,.16,1.24,.29,2.49,.43,3.73,.45,.04,1.23-.05,1.29,.12,.67,1.85,1.23,3.74,1.97,6.08-2.3-1.15-2.96-2.57-2.83-4.51,.04-.55-.28-1.13-.44-1.69-.27,.76-.55,1.52-.95,2.64-.69-1.41-1.23-2.52-1.77-3.62,.15,3.13,2.03,5.32,3.76,7.64,1.74,2.32,3.24,4.82,4.91,7.33-.11-.96-.22-1.92-.29-2.53,3.1,.6,6.16,1.2,9.28,1.8-2.07,.54-4.24,1.1-7,1.81,1.16,.17,1.82,.44,2.41,.32,2.59-.52,5.14-1.54,7.73-1.62,2.79-.08,5.1-1.46,6.51-3.08,2.38-2.73,3.83-6.29,5.6-9.53,.81-1.47,1.86-2.98,2.1-4.57,.83-5.42,1.49-10.87,1.91-16.34,.21-2.67-.24-5.4-.39-8.1Zm-29.33,31.48c2.86,2.24,5.6,4.38,8.73,6.84-5.85,.41-9.22-2.32-8.73-6.84Zm26.26-18.8c-.22,.01-.45,.02-.68,.04-.15-1.49-.22-2.99-.47-4.46-.25-1.43-.67-2.84-1.02-4.26,.72,.31,1.45,.62,2.16,.93v7.76Z"/><path d="M162.49,53.41c-.33,2.78-.05,5.63-.05,7.91,1.78,0,3.23,.18,4.61-.04,2.09-.35,4.12-1.08,6.21-1.45,2.77-.48,2.79-.4,4.79,1.93-6.13,1.71-12.2,3.49-18.32,5.09-6.17,1.61-12.39,3.04-18.85,4.61,.49-.77,.9-1.41,1.41-2.19-1.35-.43-2.88,2.44-4.2-.6,1.6-.27,3.02-.45,4.41-.73,2.59-.53,5.22-.98,7.74-1.75,.69-.21,1.05-1.49,1.72-2.52,.3,.63,.52,1.09,1.02,2.13,.88-.9,1.69-1.73,2.5-2.56,.06-.06,.11-.19,.18-.2,5.03-.46,3.16-4.05,3.19-6.86,.02-1.79,.26-3.59,.53-5.37,.81-5.31,1.75-10.6,2.53-15.91,.5-3.44-.23-3.99-3.65-3.3-2.94,.6-5.9,1.13-8.85,1.68-3.81,.71-7.63,1.42-11.44,2.13-.09-.26-.18-.51-.28-.77,1.97-.68,3.95-1.36,6.28-2.17-.91-.48-1.58-.84-2.24-1.2-.03-.25-.06-.51-.1-.76,3.06-.55,6.12-1.11,9.17-1.66,.06-.15,.13-.3,.19-.46-1.05-.16-2.11-.32-3.8-.58,5.87-1.04,10.96-2.16,16.12-2.76,1.95-.22,3.72,.16,5.81-.78,1.49-.66,4.49-1.96,5.93,.4,4.55,.21,8.77,.39,12.99,.58,.05,.19,.1,.38,.15,.57-1.07,.36-2.13,.77-3.22,1.06-3.98,1.08-8.13,1.45-11.96,3.22-2.27,1.05-4.81,1.5-7.19,2.33-.28,.1-.43,.81-.49,1.25-.97,6.56-2.04,13.11-2.82,19.7Z"/><g><path d="M231.49,61c-2.32,.94-4.59,1.97-6.87,3.02-.59,.27-1.12,.7-1.67,1.05-.39-.74-1.02-1.45-1.14-2.23-.19-1.27-.05-2.59-.05-3.96-1.3,1.16-2.49,2.3-3.77,3.33-1.33,1.07-2.75,2.03-4.08,3.01-3.22,.55-5.6-1.17-7.07-4.05-1.46-2.87-2.63-5.88-3.93-8.83,.17-.1,.34-.2,.5-.3,1.16,1.54,2.31,3.07,3.47,4.61,.08-.94-.17-1.75-.59-2.47-1.43-2.45-3.48-4.67-2.61-7.88,.7-2.58,1.35-5.18,2.05-7.76,.23-.86,.31-2.11,.9-2.47,1.65-1.01,3.53-1.64,5.31-2.44,1.02-.46,2.07-.88,3.02-1.46,.12-.08-.43-1.02-.31-1.46,.07-.28,.81-.53,1.25-.54,1.98-.06,3.97-.03,6.58-.03-1.37-1.03-2.15-1.62-2.79-2.1,.9-.67,1.68-1.25,2.82-2.1-3.54-.65-6.38-1.16-9.22-1.68,.07-.24,.13-.48,.2-.73-1.01,.72-2.12,1.31-2.98,2.16-2.34,2.32-4.28,5.14-6.9,7.04-4.36,3.15-4.69,8.4-7.29,12.43-.76,1.18-.33,3.05-.76,4.51-1.73,5.89-1.07,11.49,2.86,16.16,2.18,2.59,4.72,5.29,8.9,5.03,2.92-.18,5.89,.3,8.83,.39,1.03,.03,2.26,.04,3.08-.46,4.61-2.8,9.12-5.76,14.05-8.91-.96-.49-1.5-1.01-1.79-.89Zm-29.49,1.01c-1.53-4.13-3.87-8.14-2.96-12.86,.41-2.11,.73-4.24,1.1-6.37,.22,.02,.45,.04,.68,.06-.07,1.39-.14,2.78-.21,4.16,.47,.62,1.24,1.18,1.36,1.85,.32,1.92,.39,3.88,.15,6.27-.45-.65-.91-1.3-1.36-1.95,.82,2.08,1.46,4.25,2.52,6.21,.89,1.64,2.27,3.01,3.67,4.8-2.79,.69-4.33-.55-4.93-2.18Zm13.22,6.6c-.12-.32-.23-.64-.35-.96,2.23-.85,4.46-1.69,6.69-2.54,.18,.53,.36,1.06,.54,1.59-2.29,.64-4.59,1.27-6.88,1.91Z"/><path d="M214.45,63.12c-1.53,.92-4.78-1.54-6.98-6.21,2.74,2.44,4.9,4.37,6.98,6.21Z"/></g></svg>