<?xml version="1.0" encoding="UTF-8"?><svg id="Layer_1" xmlns="http://www.w3.org/2000/svg" viewBox="0 0 40 40"><path d="M39.51,7.25c-.67-.11-1.12-.17-1.68-.25,.42-1.93,.22-2.18-1.59-1.87-.78,.11-1.51,.5-2.26,.59-.61,.06-1.51,0-1.84-.39-2.18-2.43-4.95-3.1-7.8-1.96-3.24,1.31-6.87,2.6-6.99,7.18,0,.98-.87,1.42-1.79,1.2-.84-.2-1.68-.5-2.46-.92-3.49-1.9-6.93-3.88-10.45-5.73-.36-.2-1.4,.11-1.54,.45-.39,.92-.73,2.01-.61,2.99,.17,1.73,.67,3.44,1.01,5.14,.08,.39,.25,1.06,.08,1.17-1.17,.81-.39,1.68-.22,2.57,.08,.59,.03,1.2,.14,1.76,.08,.45,.2,.92,.45,1.29,.73,1.03,1.54,1.98,2.24,2.91-2.04,1.84,.06,2.49,1.01,3.49-.5,.14-.81,.2-1.15,.28-.06,.14-.11,.28-.17,.42,1.34,.87,2.71,1.73,4.39,2.82-2.65,1.29-5.06,2.46-7.49,3.66,.08,.92,.39,1.73,1.76,1.54,.34-.06,.73,.08,1.06,.22,1.15,.42,2.24,1.2,3.38,1.29,2.18,.17,4.41,.08,6.57-.2,2.35-.31,4.64-1.03,6.96-1.48,.81-.17,1.82,.17,2.51-.17,1.29-.59,2.51-1.37,3.58-2.32,1.06-.92,1.76-2.26,2.85-3.19,1.84-1.56,3.35-3.35,4.16-5.67,.2-.5,.22-1.12,.5-1.56,1.65-2.74,2.6-5.64,2.29-8.91-.08-.84,.39-1.82,.81-2.63,.64-1.26,1.48-2.4,2.29-3.72Zm-5.87,5c.92,.25,1.4,.42,2.21,.64-.39,1.65-.67,3.33-1.2,4.95-1.12,3.44-2.63,6.73-5.11,9.42-2.77,3.02-6.23,5.14-9.95,6.85-.61,.28-1.43,.17-2.15,.22-2.93,.2-5.87,.45-8.8,.56-1.03,.03-2.07-.31-3.38-.53,1.73-2.1,4.86-2.04,5.64-4.41-1.76-1.59-3.35-3.02-5.06-4.55,1.03-.2,1.87-.31,2.65-.59,.25-.11,.28-.73,.53-1.37-2.12,.28-3.77-.34-4.72-2.07-.64-1.12-1.06-2.35-1.59-3.49,.92-.36,1.51-.59,2.18-.84-2.4-2.6-.78-5.39-1.15-8.21,.5,.11,.78,.08,.92,.22,2.07,2.01,4.81,2.77,7.38,3.83,1.68,.7,3.58,.95,5.42,1.31,.81,.14,1.84-1.17,1.65-2.35-.28-1.68,.2-2.96,1.29-4.16,1.68-1.82,3.86-2.46,6.15-2.85,.25-.06,.56,.08,.81,.2,1.68,.7,3.35,1.43,5.06,2.1,.31,.11,.7,.06,1.03,.03,.5-.03,1.03-.11,1.54-.2-.47,1.17-1.87,1.65-1.06,3.24,.87-.48,1.7-.89,2.51-1.34,.08,.08,.14,.17,.22,.28-.92,.95-1.84,1.93-3.02,3.13Z"/></svg>