<?xml version="1.0" encoding="UTF-8"?><svg id="Layer_1" xmlns="http://www.w3.org/2000/svg" viewBox="0 0 40 40"><path d="M37.11,1.2c-.95-.18-1.93-.22-2.88-.24-5.03-.06-10.04-.08-15.06-.1-2.47,0-4.95,.06-7.42,.08-.75,0-1.34,.2-1.87,.81-.55,.65-1.32,1.14-1.97,1.72-.83,.71-1.64,1.46-2.45,2.21-.57,.55-1.14,1.12-1.68,1.72-.24,.26-.51,.57-.55,.89-.18,1.68-.28,3.37-.41,5.05-.06,.79-.14,1.56-.22,2.33-.1,.91-.2,1.84-.3,2.76h.2c.14-.34,.26-.69,.45-1.22,.45,1.42,.34,2.09-.26,2.05,.18,.63,.41,1.18,.43,1.74,.04,.65-.18,1.3-.18,1.93,0,2.53,.02,5.07,.04,7.6,0,2.86-.51,2.07,1.97,3.06,.22,.08,.45,.1,.67,.12,1.72,.06,3.45,.08,5.17,.16,.22,.02,.59,.39,.57,.57-.1,.93-.28,1.86-.45,2.78-.18,.79,1.11,2.15,1.84,1.87,.59-.24,1.22-.49,1.68-.93,1.14-1.09,2.29-2.21,3.24-3.47,.61-.81,1.22-1.14,2.17-1.05,.75,.06,1.52-.08,2.23,.1,1.66,.45,3.04-.28,4.46-.85,.16-.08,.22-.39,.36-.59,.51-.77,.97-1.56,1.56-2.27,.41-.49,1.07-.79,1.5-1.28,.73-.85,1.32-1.82,2.07-2.66,1.11-1.26,2.39-2.39,3.45-3.71,.73-.91,1.87-1.62,1.86-3.06-.04-3.12-.02-6.22-.02-9.33,0-1.2,.08-2.39,.06-3.59,0-.71-.16-1.42-.12-2.11,.04-.57,.32-1.14,.39-1.72,.08-.53,.22-1.22-.53-1.36Zm-4.3,8.84c-.06,.08-.06,.24-.06,.36-.04,1.95-.26,3.95-.04,5.88,.14,1.24-.34,1.84-1.11,2.57-1.03,.95-1.97,1.97-2.88,3.04-.53,.65-1.14,.85-1.95,.91-1.5,.08-3.04,.22-4.52,.49-.61,.12-1.16,.67-1.72,1.03-.53,.36-1.03,.79-1.6,1.07-.12,.06-.65-.34-.71-.59-.41-1.72-.39-1.72-2.13-1.76-1.07-.02-2.15-.06-3.22-.16-.18-.02-.49-.37-.49-.57-.02-2.94-.04-5.86,0-8.8,.02-1.91,.14-3.83,.16-5.74,0-.83-.12-1.66-.18-2.31,2.15-.08,4.14-.2,6.14-.22,2.33-.04,4.68,.04,7.01,.06,.89,0,1.76-.06,2.62-.06,1.54-.02,3.1-.02,4.56-.02,.2,.73,.28,1.3,.49,1.82,.43,1.09,.49,2.09-.37,3.02Z"/><path d="M22.05,15.95c-.2,.67-.61,1.11-1.14,1.18-.51-.41-.95-.67-1.24-1.03-.28-.36-.49-.83-.55-1.26-.22-1.72-.36-3.45-.51-5.19-.1-1.01,.83-2.21,1.82-2.39,.57-.1,2.09,.93,2.09,1.52-.06,2.39,.28,4.82-.45,7.16Z"/><path d="M29.9,15.14c-.04,.67-.71,1.32-1.11,1.97-.04,.06-.1,.1-.16,.12-.47,.2-2.45-.93-2.41-1.44,.14-2.05,.24-4.12,.57-6.16,.14-.83,.83-1.54,1.26-2.31,.16-.02,.32-.02,.47-.04,.43,.75,1.18,1.46,1.28,2.25,.22,1.86,.22,3.75,.08,5.6Z"/></svg>