<?xml version="1.0" encoding="UTF-8"?><svg id="Layer_1" xmlns="http://www.w3.org/2000/svg" viewBox="0 0 40 40"><path d="M39.11,18.3c-.31-.87-.43-1.8-.64-2.71-.12-.48-.54-1.05-.39-1.43,.76-2.04-1.16-3.43-1.16-5.27-.02-.17-.31-.37-.52-.45-2.13-1.01-4.21-2.15-6.65-2.21-.72-.02-1.45,.1-2.17,.14-.21,.02-.39,0-.58-.04-.56-.1-1.07-.31-1.63-.33-1.86-.1-3.72-.21-5.6-.17-1.24,.02-2.44,.41-3.72,.02-.66-.19-1.4-.08-2.13-.06-.83,.02-1.67,.21-2.5,.19-2.29-.1-4.52,.14-6.63,.95-1.4,.56-2.95,1.09-3.02,3.06-.04,.87-.14,1.76-.31,2.62-.41,2.27,.02,4.54-.37,6.88-.62,3.7-.6,7.52,.43,11.24,.48,1.76,1.59,2.4,3.35,1.82,.37-.12,.78-.17,1.18-.14,1.07,.02,2.15,.1,3.22,.19,.25,.02,.62,.08,.7,.27,.33,.64,.72,.37,1.2,.21,.43-.14,1.26-.27,1.36-.08,.54,.91,1.38,.74,2.15,.85,.19-.27,.37-.54,.54-.78,.33,.35,.56,.83,.83,.85,1.24,.04,2.5,.81,3.76-.06,.35-.25,.91-.21,1.38-.21,.72-.02,1.49,.19,2.21,.06,1.65-.29,3.3-.74,5-1.14-.04-.21-.08-.41-.12-.64,.06-.08,.14-.19,.23-.29,.5,1.3,1.38,1.43,2.46,1.16,.08-.04,.21-.04,.31,0,1.03,.41,1.98,.06,2.93-.31,.19-.08,.41-.08,.6-.17,.97-.45,2.27-.68,2.87-1.45,.78-.97,1.2-2.33,1.38-3.59,.17-1.26-.19-2.56-.25-3.86-.1-1.69,.89-3.35,.29-5.1ZM2.88,32.37c-.04-.17-.1-.33-.14-.5,.45-.12,.91-.25,1.34-.35,.04,.17,.1,.33,.14,.5-.45,.12-.91,.23-1.34,.35Zm35.05-11.24c-.25,1.36-.48,2.69-.14,4.05,.35,1.32-.04,2.56-.48,3.8-.02,.06-.06,.12-.08,.17-.62,1.05-3.9,2.29-5.08,2.15-1.2-.17-2.44-.17-3.64-.08-1.32,.06-2.64,.29-3.97,.43-1.61,.21-3.2,.39-4.81,.58-.68,.08-1.36,.17-2.02,.21-1.05,.06-2.09,.58-3.16-.19-.52-.35-1.32-.37-2-.45-2.33-.25-4.67-.45-7-.7-.7-.06-1.43-.14-2.11-.31-.74-.17-.76-.74-.95-1.43-.7-2.75-.35-5.49-.37-8.22,0-.78,.37-1.57,.45-2.35,.1-1.07,.27-2.19,.12-3.24-.21-1.8,.25-3.49,.6-5.2,.04-.23,.31-.62,.43-.62,.97,.1,1.03-.66,1.32-1.26,.54-1.07,1.53-.97,2.46-.87,.87,.1,1.71,.37,2.21-.31,.58-.04,.91-.08,1.26-.08,1.01-.02,2.04-.12,3.08-.04,1.38,.08,2.77,.5,4.15,.41,2.19-.14,4.36-.23,6.55,.02,1.22,.14,2.48-.21,3.72-.29,.5-.02,1.01,.08,1.53,.17,1.07,.19,2.15,.41,3.22,.62,.12,.02,.29,.06,.37,.14,1.57,1.55,3.35,2.95,3.37,5.47,0,1.38,.37,2.64,.83,3.97,.37,1.05,.35,2.35,.14,3.47Z"/><path d="M26.02,18.96c-.19,.54-.43,1.24-.87,1.49-2.07,1.18-4.21,2.23-6.34,3.28-.64,.31-1.3,.6-2,.74-.37,.08-1.09-.1-1.18-.33-.31-.81-.52-1.67-.54-2.52-.04-2.11,.02-4.21,.04-6.32v-1.86c1.51,.37,2.83,.62,4.13,1.01,1.47,.48,2.93,.99,4.17,2,.19,.17,.27,.45,.39,.68,.35,.66,.7,1.24,1.63,1.16,.17-.02,.62,.52,.56,.66Z"/></svg>